<svg xmlns="http://www.w3.org/2000/svg" viewBox="0 0 617.98 447.37">
  <g fill="#fcee21">
    <path d="M370.81,274.36c33.07-11.12,56.66-33.41,69.78-68.22A175.68,175.68,0,0,0,410,205.7c-2.35,3-4.32,5.15-5.88,7.56-9.92,15.34-23.72,25.46-40.77,31.82-36.38,13.59-78,0-98.66-33.07-3.1-4.95-6.64-6.8-12.16-6.76-17.9.15-35.8-.06-53.7.11-6,.06-11-1-16-4.89-10.3-8-25.36-4.53-33.16,6.74-7.09,10.23-4.51,25,5.64,32.34s21.78,5.75,35.37-4.84H243.6C278.5,278,328.05,288.72,370.81,274.36Z"/>
    <path d="M304,181.7c5.13,0,9.73.56,14.17,2.67a24,24,0,0,0,37.4-29.66c-4.2-7-11.65-11-20.55-11.38-8.5-.38-14.52,3.71-20,9.17-2,.15-3.87.41-5.7.41q-88.5.09-177,.2a13.19,13.19,0,0,1-8.17-2.67,24.28,24.28,0,0,0-2.75-2.32c-7.28-6.08-16.07-6.09-24.11-3.21-7.68,2.76-12.4,8.57-13.32,17.29A24,24,0,0,0,85,176.56a17.2,17.2,0,0,0,5,7.67,24,24,0,0,0,35.9-1.52,27.49,27.49,0,0,1,8.15-1Q219,181.83,304,181.7Z"/>
    <path d="M223,86.32c29.07-37.06,66-56.94,112.56-56.6S419,50.1,447.58,87.2c7.24,0,13.83.28,20.38-.07a12.12,12.12,0,0,1,4.62.65,24,24,0,1,0-2-29.83,30.92,30.92,0,0,1-9.46-.4C405.18-4.73,325.6-13.3,261.69,16.7,230.24,31.46,206.49,55,188.44,87.23,201.82,86.29,212.78,88.39,223,86.32Z"/>
    <path d="M490.29,239.58a24,24,0,0,0-21.06,12.47H469c-6.41-.31-12.85-.06-19.94-.06-28,32.83-64.15,50.56-109.61,50.86s-81.69-17.29-110.14-50.08c-10-1.83-20.72,0-33.82-.81,17.66,28.55,40.91,49.35,71.68,62.41,62.53,26.54,140.4,19,195.11-36.15a34.11,34.11,0,0,1,8.75-.39,24,24,0,1,0,19.31-38.25Z"/>
    <path d="M129.08,130.3a19.63,19.63,0,0,0,3.31,3.1,20.82,20.82,0,0,0,14.51,4.16,24,24,0,0,0,17-7.68A28.76,28.76,0,0,1,175.11,128c25.82.11,51.64,0,77.46.07,4.64,0,8.52-.44,11.36-5.21A77.39,77.39,0,0,1,295,93.37c31.53-16.53,61.4-13.48,90.28,6.85,10.38,7.31,16.89,17.81,25,27.44,9.64.31,19.22,1.08,29.77-.68-.75-3.29-.85-5.19-1.6-6.8-21.81-46.68-67.87-72.71-119-65.88C291.91,58,268.63,70.6,250.21,91.68c-3.45,3.95-7.16,6.37-12.83,6.29-21.6-.28-43.2-.15-64.81-.1a21.9,21.9,0,0,1-10.43-2.31,23.8,23.8,0,0,0-4.93-3.35,18.94,18.94,0,0,0-14-3.55c-8.93,1.33-18.74,10.15-20.63,18.6a21.73,21.73,0,0,0-.29,7.15A23.9,23.9,0,0,0,129.08,130.3Z"/>
  </g>
  <g fill="#fff">
    <path d="M51.46,395.54a31,31,0,0,0-8.2-5.85,26.74,26.74,0,0,0-10.84-2.45c-14.51,0-25.26,11.69-25.26,26.2,0,17.06,13.86,25.64,25.36,25.64a26,26,0,0,0,11.68-2.92,28.44,28.44,0,0,0,7.26-5.28v8.67a32.69,32.69,0,0,1-18.94,6.13C13.85,445.68,0,431.54,0,413.35c0-18.76,14-32.71,32.89-32.71a29.63,29.63,0,0,1,18.57,6.22Z"/>
    <path d="M140.43,426.83H113.66l-7.54,17.72H98.39l28.94-65.89,28.18,65.89h-7.73Zm-2.73-6.6-10.56-25.17L116.4,420.23Z"/>
    <path d="M217.24,381.68c6.32,0,11.59.75,15.84,4.43,4.61,4,5.75,9.52,5.75,13.48,0,8.86-5.57,17.62-19.89,17.62h-6.13v27.34h-7V381.68Zm-4.43,28.94h5.75c8.29,0,13.29-4.15,13.29-11.41,0-10-9.33-10.93-13.85-10.93h-5.19Z"/>
    <path d="M322.89,388.28H297.26v18.66h24.88v6.6H297.26V438h25.63v6.6H290.28V381.68h32.61Z"/>
    <path d="M377.18,444.55V379l49,51.37V381.68h7v65.69l-49-51.36v48.54Z"/>
    <path d="M506.3,388.28v56.27h-7V388.28H484.05v-6.6h37.52v6.6Z"/>
    <path d="M602.9,426.83H576.13l-7.54,17.72h-7.73l28.94-65.89L618,444.55h-7.73Zm-2.73-6.6-10.56-25.17-10.74,25.17Z"/>
  </g>
</svg>
